<svg width="24" height="24" viewBox="0 0 24 24" fill="none" xmlns="http://www.w3.org/2000/svg">
<path d="M8.40003 0C3.77503 0 0 3.77503 0 8.40003C0 13.025 3.77503 16.8001 8.40003 16.8001C10.4976 16.8001 12.414 16.0177 13.8891 14.7375L14.4 15.2485V16.8001L21.1032 23.5032C21.7656 24.1656 22.8408 24.1656 23.5032 23.5032C24.1656 22.8408 24.1656 21.7656 23.5032 21.1032L16.8001 14.4H15.2485L14.7375 13.8891C16.0177 12.414 16.8001 10.4976 16.8001 8.40003C16.8001 3.77503 13.025 0 8.40003 0ZM8.40003 2.40001C11.728 2.40001 14.4 5.07209 14.4 8.40003C14.4 11.728 11.728 14.4 8.40003 14.4C5.07209 14.4 2.40001 11.728 2.40001 8.40003C2.40001 5.07209 5.07209 2.40001 8.40003 2.40001Z" fill="#0FEE83"/>
</svg>
