<!DOCTYPE svg PUBLIC "-//W3C//DTD SVG 20010904//EN" "http://www.w3.org/TR/2001/REC-SVG-20010904/DTD/svg10.dtd">
<svg version="1.0" xmlns="http://www.w3.org/2000/svg" width="90px" height="90px" viewBox="0 0 900 900" preserveAspectRatio="xMidYMid meet">
<g id="layer101" fill="#000000" stroke="none">
 <path d="M335 793 c-78 -28 -143 -79 -185 -144 -120 -186 -54 -427 146 -525 53 -26 69 -29 154 -29 82 0 103 4 152 27 73 34 137 98 174 174 26 53 29 69 29 154 0 85 -3 101 -29 154 -62 126 -171 197 -310 203 -60 3 -94 -1 -131 -14z m320 -233 c3 -5 -10 -27 -30 -48 -19 -22 -35 -42 -35 -46 0 -4 16 -29 35 -57 19 -28 32 -55 29 -60 -3 -5 -23 -9 -44 -9 -36 0 -42 4 -59 38 -10 20 -28 45 -40 56 -24 22 -29 15 -33 -54 -3 -39 -6 -45 -27 -48 -12 -2 -34 -1 -47 2 -23 6 -23 8 -9 23 19 18 17 84 -2 90 -7 3 -26 -21 -43 -51 -28 -50 -35 -56 -64 -56 -18 0 -35 3 -39 6 -7 8 25 73 65 132 37 53 82 82 129 82 29 0 38 -5 48 -26 l11 -26 36 31 c26 23 44 31 74 31 21 0 41 -4 45 -10z"/>
 </g>

</svg>