<svg width="24" height="24" viewBox="0 0 24 24" fill="none" xmlns="http://www.w3.org/2000/svg">
<path d="M13.8748 0.944935C13.8542 0.948686 13.8336 0.95431 13.8148 0.959935H5.51984C4.60109 0.959935 3.83984 1.70806 3.83984 2.62494V21.0749C3.83984 22.1568 4.73609 23.0399 5.81984 23.0399H18.1798C19.2636 23.0399 20.1598 22.1568 20.1598 21.0749V7.28994C20.173 7.22619 20.173 7.15869 20.1598 7.09493V6.95994C20.1636 6.83244 20.1148 6.70681 20.0248 6.61494L14.5048 1.09494C14.413 1.00494 14.2873 0.956186 14.1598 0.959935H14.0098C13.9667 0.948686 13.9198 0.94306 13.8748 0.944935ZM5.51984 1.91994H13.4398V5.92494C13.4398 6.89056 14.2292 7.67993 15.1948 7.67993H19.1998V21.0749C19.1998 21.6356 18.7461 22.0799 18.1798 22.0799H5.81984C5.25359 22.0799 4.79984 21.6356 4.79984 21.0749V2.62494C4.79984 2.22931 5.11672 1.91994 5.51984 1.91994ZM14.3998 2.36994L18.7498 6.71993H15.1948C14.7467 6.71993 14.3998 6.37306 14.3998 5.92494V2.36994ZM8.15984 11.9999C7.89547 11.9999 7.67984 12.2156 7.67984 12.4799C7.67984 12.7443 7.89547 12.9599 8.15984 12.9599C8.42422 12.9599 8.63984 12.7443 8.63984 12.4799C8.63984 12.2156 8.42422 11.9999 8.15984 11.9999ZM10.0798 11.9999V12.9599H15.8398V11.9999H10.0798ZM8.15984 14.3999C7.89547 14.3999 7.67984 14.6156 7.67984 14.8799C7.67984 15.1443 7.89547 15.3599 8.15984 15.3599C8.42422 15.3599 8.63984 15.1443 8.63984 14.8799C8.63984 14.6156 8.42422 14.3999 8.15984 14.3999ZM10.0798 14.3999V15.3599H15.8398V14.3999H10.0798ZM8.15984 16.7999C7.89547 16.7999 7.67984 17.0156 7.67984 17.2799C7.67984 17.5443 7.89547 17.7599 8.15984 17.7599C8.42422 17.7599 8.63984 17.5443 8.63984 17.2799C8.63984 17.0156 8.42422 16.7999 8.15984 16.7999ZM10.0798 16.7999V17.7599H15.8398V16.7999H10.0798Z" fill="#0FEE83"/>
</svg>
