<!DOCTYPE svg PUBLIC "-//W3C//DTD SVG 20010904//EN" "http://www.w3.org/TR/2001/REC-SVG-20010904/DTD/svg10.dtd">
<svg version="1.0" xmlns="http://www.w3.org/2000/svg" width="150px" height="150px" viewBox="0 0 1500 1500" preserveAspectRatio="xMidYMid meet">
<g id="layer101" fill="#050505" stroke="none">
 <path d="M258 1417 c-20 -12 -46 -39 -58 -59 -20 -36 -20 -46 -18 -618 2 -372 7 -583 13 -588 6 -4 15 -16 21 -26 6 -11 19 -24 30 -30 10 -6 22 -15 26 -21 5 -6 195 -11 528 -13 l520 -3 0 556 0 555 -496 0 c-544 0 -531 -1 -568 60 -20 35 -20 55 0 90 37 61 24 60 568 60 l496 0 0 30 0 30 -512 0 c-511 -1 -513 -1 -550 -23z m739 -389 c29 -27 29 -45 1 -75 -27 -29 -45 -29 -75 -1 -29 27 -29 45 -1 75 27 29 45 29 75 1z m-421 -24 c59 -19 114 -44 132 -61 18 -17 67 -17 84 0 25 25 46 27 52 4 4 -15 -1 -27 -14 -39 -11 -9 -20 -19 -20 -24 0 -11 186 -194 198 -194 6 0 25 29 42 65 26 53 31 76 30 123 -3 84 -1 104 10 97 17 -10 50 -82 50 -107 -1 -39 -52 -170 -77 -196 -7 -7 -13 -26 -13 -42 0 -16 6 -35 13 -42 25 -26 76 -157 77 -196 1 -58 -62 -131 -129 -149 -37 -9 -182 40 -219 75 -18 16 -67 16 -84 -1 -25 -25 -46 -27 -52 -4 -4 15 1 27 14 39 11 9 20 19 20 24 0 11 -186 194 -198 194 -6 0 -25 -29 -42 -65 -26 -53 -31 -76 -30 -123 3 -84 1 -104 -10 -97 -17 10 -50 82 -50 107 1 39 52 170 77 196 17 17 17 67 0 84 -26 27 -76 157 -77 198 0 40 42 103 85 127 48 27 66 28 131 7z m1 -696 c29 -27 29 -45 1 -75 -27 -29 -45 -29 -75 -1 -29 27 -29 45 -1 75 27 29 45 29 75 1z"/>
 <path d="M443 936 c-34 -36 -31 -103 8 -183 17 -35 35 -63 41 -63 14 0 198 184 198 198 0 6 -28 24 -63 41 -82 40 -151 42 -184 7z"/>
 <path d="M632 748 c-69 -69 -92 -98 -92 -118 0 -38 172 -210 210 -210 38 0 210 172 210 210 0 38 -172 210 -210 210 -20 0 -49 -23 -118 -92z m148 -37 c0 -5 9 -11 20 -14 11 -3 20 -12 20 -21 0 -9 5 -16 10 -16 6 0 10 -13 10 -30 0 -16 -4 -30 -10 -30 -5 0 -10 -7 -10 -16 0 -9 -9 -18 -20 -21 -11 -3 -20 -9 -20 -14 0 -5 -13 -9 -30 -9 -16 0 -30 4 -30 9 0 5 -9 11 -20 14 -11 3 -20 12 -20 21 0 9 -4 16 -10 16 -5 0 -10 14 -10 30 0 17 5 30 10 30 6 0 10 7 10 16 0 9 9 18 20 21 11 3 20 9 20 14 0 5 14 9 30 9 17 0 30 -4 30 -9z"/>
 <path d="M903 476 c-51 -51 -93 -97 -93 -101 0 -10 43 -44 56 -45 7 0 25 -7 40 -15 16 -8 52 -15 79 -15 67 0 95 28 95 96 0 51 -52 174 -73 174 -7 0 -54 -43 -104 -94z"/>
 </g>

</svg>