<!DOCTYPE svg PUBLIC "-//W3C//DTD SVG 20010904//EN" "http://www.w3.org/TR/2001/REC-SVG-20010904/DTD/svg10.dtd">
<svg version="1.0" xmlns="http://www.w3.org/2000/svg" width="100px" height="100px" viewBox="0 0 1000 1000" preserveAspectRatio="xMidYMid meet">
<g id="layer101" fill="#000000" stroke="none">
 <path d="M40 927 c0 -19 12 -52 29 -79 25 -39 43 -53 118 -89 48 -24 98 -52 111 -63 28 -25 29 -74 2 -118 -11 -18 -20 -39 -20 -47 0 -8 -8 -19 -17 -26 -15 -11 -18 -33 -19 -143 -2 -117 0 -135 19 -173 27 -53 62 -79 115 -86 l42 -6 0 121 c0 131 6 147 58 158 46 9 57 20 63 63 5 42 20 61 48 61 18 0 8 65 -14 90 -23 25 -19 83 8 106 12 11 61 39 110 63 98 47 134 88 144 160 l6 41 -402 0 -401 0 0 -33z"/>
 <path d="M563 424 c8 -50 0 -64 -38 -64 -58 0 -65 -19 -65 -172 0 -118 2 -137 18 -151 16 -15 46 -17 214 -17 176 0 196 2 211 18 14 15 17 42 17 154 0 170 2 168 -133 168 -86 0 -96 2 -102 19 -9 31 -73 81 -102 81 -24 0 -25 -2 -20 -36z m87 -74 l12 -29 107 -3 106 -3 0 -125 0 -125 -185 0 -185 0 0 125 0 125 47 3 c47 3 48 4 54 43 7 44 23 41 44 -11z"/>
 <path d="M580 240 c0 -16 7 -20 30 -20 23 0 30 4 30 20 0 16 -7 20 -30 20 -23 0 -30 -4 -30 -20z"/>
 <path d="M680 240 c0 -18 7 -20 70 -20 63 0 70 2 70 20 0 18 -7 20 -70 20 -63 0 -70 -2 -70 -20z"/>
 <path d="M580 140 c0 -18 7 -20 70 -20 63 0 70 2 70 20 0 18 -7 20 -70 20 -63 0 -70 -2 -70 -20z"/>
 <path d="M760 140 c0 -16 7 -20 30 -20 23 0 30 4 30 20 0 16 -7 20 -30 20 -23 0 -30 -4 -30 -20z"/>
 </g>

</svg>