<!DOCTYPE svg PUBLIC "-//W3C//DTD SVG 20010904//EN" "http://www.w3.org/TR/2001/REC-SVG-20010904/DTD/svg10.dtd">
<svg version="1.0" xmlns="http://www.w3.org/2000/svg" width="100px" height="100px" viewBox="0 0 1000 1000" preserveAspectRatio="xMidYMid meet">
<g id="layer101" fill="#000000" stroke="none">
 <path d="M52 948 c-17 -17 -17 -839 0 -856 7 -7 40 -12 80 -12 68 0 68 0 68 -28 0 -37 17 -52 60 -52 43 0 60 15 60 52 l0 28 180 0 180 0 0 -28 c0 -37 17 -52 60 -52 43 0 60 15 60 52 0 28 0 28 68 28 40 0 73 5 80 12 17 17 17 839 0 856 -17 17 -879 17 -896 0z m868 -338 l0 -310 -420 0 -420 0 0 310 0 310 420 0 420 0 0 -310z m-640 -510 c0 -53 -2 -60 -20 -60 -18 0 -20 7 -20 60 0 53 2 60 20 60 18 0 20 -7 20 -60z m480 0 c0 -53 -2 -60 -20 -60 -18 0 -20 7 -20 60 0 53 2 60 20 60 18 0 20 -7 20 -60z"/>
 <path d="M436 764 c-115 -84 -156 -140 -156 -209 0 -101 103 -165 190 -120 27 14 33 14 60 0 118 -61 235 69 171 193 -25 49 -113 127 -196 174 -5 3 -37 -14 -69 -38z"/>
 </g>

</svg>