<!DOCTYPE svg PUBLIC "-//W3C//DTD SVG 20010904//EN" "http://www.w3.org/TR/2001/REC-SVG-20010904/DTD/svg10.dtd">
<svg version="1.0" xmlns="http://www.w3.org/2000/svg" width="100px" height="100px" viewBox="0 0 1000 1000" preserveAspectRatio="xMidYMid meet">
<g id="layer101" fill="#000000" stroke="none">
 <path d="M29 971 c-57 -57 -28 -153 50 -169 32 -7 36 -12 65 -92 24 -68 35 -85 48 -82 24 5 23 14 -8 104 l-27 76 22 27 c78 100 -60 225 -150 136z"/>
 <path d="M309 971 c-37 -37 -40 -94 -7 -136 l22 -28 -27 -76 c-32 -89 -33 -98 -9 -103 13 -3 24 14 48 82 30 79 34 85 65 92 117 24 99 198 -21 198 -33 0 -48 -6 -71 -29z"/>
 <path d="M549 971 c-56 -57 -28 -153 50 -169 31 -7 35 -13 65 -92 24 -68 35 -85 49 -82 23 5 22 14 -10 103 l-27 76 22 28 c79 100 -59 225 -149 136z"/>
 <path d="M829 971 c-37 -37 -40 -94 -8 -136 l22 -27 -27 -76 c-31 -90 -32 -99 -8 -104 13 -3 24 14 48 82 29 80 33 85 65 92 117 24 99 198 -21 198 -33 0 -48 -6 -71 -29z"/>
 <path d="M169 571 c-63 -64 -20 -171 69 -171 39 0 40 -2 102 -95 34 -52 65 -95 69 -95 3 0 12 4 20 9 12 8 2 28 -49 105 -57 87 -62 99 -51 122 34 76 -11 154 -89 154 -33 0 -48 -6 -71 -29z"/>
 <path d="M689 571 c-32 -32 -38 -79 -18 -125 11 -23 6 -35 -51 -122 -51 -77 -61 -97 -49 -105 8 -5 17 -9 20 -9 4 0 35 43 69 95 62 93 63 95 102 95 30 0 46 7 69 29 64 65 20 171 -71 171 -33 0 -48 -6 -71 -29z"/>
 <path d="M429 171 c-64 -65 -20 -171 71 -171 91 0 135 106 71 171 -41 41 -101 41 -142 0z"/>
 </g>

</svg>